# Blender v3.1.2 OBJ File: 'beaker (copy).blend'
# www.blender.org
mtllib beakernew.mtl
o Cylinder
v -0.000000 -0.000000 -0.070000
v -0.000000 0.000008 -0.068267
v -0.000000 -0.044000 -0.070000
v -0.000000 -0.044000 0.070000
v -0.008584 -0.043155 -0.070000
v -0.008584 -0.043155 0.070000
v -0.016838 -0.040651 -0.070000
v -0.016838 -0.040651 0.070000
v -0.024445 -0.036585 -0.070000
v -0.024445 -0.036585 0.070000
v -0.031113 -0.031113 -0.070000
v -0.031113 -0.031113 0.070000
v -0.036585 -0.024445 -0.070000
v -0.036585 -0.024445 0.070000
v -0.040651 -0.016838 -0.070000
v -0.040651 -0.016838 0.070000
v -0.043155 -0.008584 -0.070000
v -0.043155 -0.008584 0.070000
v -0.044000 -0.000000 -0.070000
v -0.044000 0.000000 0.070000
v -0.043155 0.008584 -0.070000
v -0.043155 0.008584 0.070000
v -0.040651 0.016838 -0.070000
v -0.040651 0.016838 0.070000
v -0.036585 0.024445 -0.070000
v -0.036585 0.024445 0.070000
v -0.031113 0.031113 -0.070000
v -0.031113 0.031113 0.070000
v -0.024445 0.036585 -0.070000
v -0.024445 0.036585 0.070000
v -0.016838 0.040651 -0.070000
v -0.016838 0.040651 0.070000
v -0.008584 0.043155 -0.070000
v -0.008584 0.053563 0.070000
v 0.000000 0.044000 -0.070000
v 0.000000 0.060020 0.070000
v 0.008584 0.043155 -0.070000
v 0.008584 0.053563 0.070000
v 0.016838 0.040651 -0.070000
v 0.016838 0.040651 0.070000
v 0.024445 0.036585 -0.070000
v 0.024445 0.036585 0.070000
v 0.031113 0.031113 -0.070000
v 0.031113 0.031113 0.070000
v 0.036585 0.024445 -0.070000
v 0.036585 0.024445 0.070000
v 0.040651 0.016838 -0.070000
v 0.040651 0.016838 0.070000
v 0.043155 0.008584 -0.070000
v 0.043155 0.008584 0.070000
v 0.044000 -0.000000 -0.070000
v 0.044000 -0.000000 0.070000
v 0.043155 -0.008584 -0.070000
v 0.043155 -0.008584 0.070000
v 0.040651 -0.016838 -0.070000
v 0.040651 -0.016838 0.070000
v 0.036585 -0.024445 -0.070000
v 0.036585 -0.024445 0.070000
v 0.031113 -0.031113 -0.070000
v 0.031113 -0.031113 0.070000
v 0.024445 -0.036585 -0.070000
v 0.024445 -0.036585 0.070000
v 0.016838 -0.040651 -0.070000
v 0.016838 -0.040651 0.070000
v 0.008584 -0.043155 -0.070000
v 0.008584 -0.043155 0.070000
v -0.000000 -0.044000 0.047559
v -0.008584 -0.043155 0.047559
v -0.016838 -0.040651 0.047559
v -0.024445 -0.036585 0.047559
v -0.031113 -0.031113 0.047559
v -0.036585 -0.024445 0.047559
v -0.040651 -0.016838 0.047559
v -0.043155 -0.008584 0.047559
v -0.044000 0.000000 0.047559
v -0.043155 0.008584 0.047559
v -0.040651 0.016838 0.047559
v -0.036585 0.024445 0.047559
v -0.031113 0.031113 0.047559
v -0.024445 0.036585 0.047559
v -0.016838 0.040651 0.047559
v -0.008584 0.043155 0.047559
v 0.000000 0.044000 0.047559
v 0.008584 0.043155 0.047559
v 0.016838 0.040651 0.047559
v 0.024445 0.036585 0.047559
v 0.031113 0.031113 0.047559
v 0.036585 0.024445 0.047559
v 0.040651 0.016838 0.047559
v 0.043155 0.008584 0.047559
v 0.044000 -0.000000 0.047559
v 0.043155 -0.008584 0.047559
v 0.040651 -0.016838 0.047559
v 0.036585 -0.024445 0.047559
v 0.031113 -0.031113 0.047559
v 0.024445 -0.036585 0.047559
v 0.016838 -0.040651 0.047559
v 0.008584 -0.043155 0.047559
v -0.000000 -0.043095 -0.068267
v -0.000000 -0.043095 0.068878
v -0.008409 -0.042267 -0.068267
v -0.008409 -0.042267 0.068878
v -0.016495 -0.039814 -0.068267
v -0.016495 -0.039814 0.068878
v -0.023947 -0.035831 -0.068267
v -0.023947 -0.035831 0.068878
v -0.030478 -0.030470 -0.068267
v -0.030478 -0.030470 0.068878
v -0.035839 -0.023939 -0.068267
v -0.035839 -0.023939 0.068878
v -0.039822 -0.016487 -0.068267
v -0.039822 -0.016487 0.068878
v -0.042274 -0.008401 -0.068267
v -0.042274 -0.008401 0.068878
v -0.043103 0.000008 -0.068267
v -0.043103 0.000008 0.068878
v -0.042274 0.008417 -0.068267
v -0.042274 0.008417 0.068878
v -0.039822 0.016502 -0.068267
v -0.039822 0.016502 0.068878
v -0.035839 0.023954 -0.068267
v -0.035839 0.023954 0.068878
v -0.030478 0.030486 -0.068267
v -0.030478 0.030486 0.068878
v -0.023947 0.035846 -0.068267
v -0.023947 0.035846 0.068878
v -0.016495 0.039829 -0.068267
v -0.016495 0.039829 0.068878
v -0.008409 0.042282 -0.068267
v -0.008409 0.052478 0.068878
v 0.000000 0.043110 -0.068267
v 0.000000 0.058804 0.068878
v 0.008409 0.042282 -0.068267
v 0.008409 0.052478 0.068878
v 0.016495 0.039829 -0.068267
v 0.016495 0.039829 0.068878
v 0.023947 0.035846 -0.068267
v 0.023947 0.035846 0.068878
v 0.030478 0.030486 -0.068267
v 0.030478 0.030486 0.068878
v 0.035839 0.023954 -0.068267
v 0.035839 0.023954 0.068878
v 0.039822 0.016502 -0.068267
v 0.039822 0.016502 0.068878
v 0.042274 0.008417 -0.068267
v 0.042274 0.008417 0.068878
v 0.043103 0.000008 -0.068267
v 0.043103 0.000008 0.068878
v 0.042274 -0.008401 -0.068267
v 0.042274 -0.008401 0.068878
v 0.039822 -0.016487 -0.068267
v 0.039822 -0.016487 0.068878
v 0.035839 -0.023939 -0.068267
v 0.035839 -0.023939 0.068878
v 0.030478 -0.030470 -0.068267
v 0.030478 -0.030470 0.068878
v 0.023947 -0.035831 -0.068267
v 0.023947 -0.035831 0.068878
v 0.016495 -0.039814 -0.068267
v 0.016495 -0.039814 0.068878
v 0.008409 -0.042267 -0.068267
v 0.008409 -0.042267 0.068878
v -0.000000 -0.043095 0.046894
v -0.008409 -0.042267 0.046894
v -0.016495 -0.039814 0.046894
v -0.023947 -0.035831 0.046894
v -0.030478 -0.030470 0.046894
v -0.035839 -0.023939 0.046894
v -0.039822 -0.016487 0.046894
v -0.042274 -0.008401 0.046894
v -0.043103 0.000008 0.046894
v -0.042274 0.008417 0.046894
v -0.039822 0.016502 0.046894
v -0.035839 0.023954 0.046894
v -0.030478 0.030486 0.046894
v -0.023947 0.035846 0.046894
v -0.016495 0.039829 0.046894
v -0.008409 0.042282 0.046894
v 0.000000 0.043110 0.046894
v 0.008409 0.042282 0.046894
v 0.016495 0.039829 0.046894
v 0.023947 0.035846 0.046894
v 0.030478 0.030486 0.046894
v 0.035839 0.023954 0.046894
v 0.039822 0.016502 0.046894
v 0.042274 0.008417 0.046894
v 0.043103 0.000008 0.046894
v 0.042274 -0.008401 0.046894
v 0.039822 -0.016487 0.046894
v 0.035839 -0.023939 0.046894
v 0.030478 -0.030470 0.046894
v 0.023947 -0.035831 0.046894
v 0.016495 -0.039814 0.046894
v 0.008409 -0.042267 0.046894
v -0.008584 -0.043155 0.039989
v -0.016838 -0.040651 0.039989
v -0.024445 -0.036585 0.039989
v -0.031113 -0.031113 0.039989
v -0.036585 -0.024445 0.039989
v -0.040651 -0.016838 0.039989
v -0.043155 -0.008584 0.039989
v -0.044000 0.000000 0.039989
v -0.043155 0.008584 0.039989
v -0.040651 0.016838 0.039989
v -0.036585 0.024445 0.039989
v -0.031113 0.031113 0.039989
v -0.024445 0.036585 0.039989
v -0.016838 0.040651 0.039989
v -0.008584 0.043155 0.039989
v 0.000000 0.044000 0.039989
v 0.008584 0.043155 0.039989
v 0.016838 0.040651 0.039989
v 0.024445 0.036585 0.039989
v 0.031113 0.031113 0.039989
v 0.036585 0.024445 0.039989
v 0.040651 0.016838 0.039989
v 0.043155 0.008584 0.039989
v 0.044000 -0.000000 0.039989
v 0.043155 -0.008584 0.039989
v 0.040651 -0.016838 0.039989
v 0.036585 -0.024445 0.039989
v 0.031113 -0.031113 0.039989
v 0.024445 -0.036585 0.039989
v 0.016838 -0.040651 0.039989
v 0.008584 -0.043155 0.039989
v -0.000000 -0.044000 0.039989
vt 0.750000 0.250000
vt 0.796822 0.485388
vt 0.750000 0.490000
vt 0.750000 0.250000
vt 0.796822 0.014612
vt 0.750000 0.010000
vt 1.000000 0.919853
vt 0.968750 0.919853
vt 0.968750 1.000000
vt 1.000000 1.000000
vt 0.841844 0.471731
vt 0.562500 0.919853
vt 0.562500 1.000000
vt 0.531250 1.000000
vt 0.531250 0.919853
vt 0.937500 0.919853
vt 0.937500 1.000000
vt 0.883337 0.449553
vt 0.841844 0.028269
vt 0.906250 0.919853
vt 0.906250 1.000000
vt 0.919706 0.419706
vt 0.593750 0.919853
vt 0.593750 1.000000
vt 0.875000 0.919853
vt 0.875000 1.000000
vt 0.949553 0.383337
vt 0.883337 0.050447
vt 0.843750 0.919853
vt 0.843750 1.000000
vt 0.971731 0.341844
vt 0.625000 0.919853
vt 0.625000 1.000000
vt 0.812500 0.919853
vt 0.812500 1.000000
vt 0.985388 0.296822
vt 0.919706 0.080294
vt 0.781250 0.919853
vt 0.781250 1.000000
vt 0.990000 0.250000
vt 0.656250 0.919853
vt 0.656250 1.000000
vt 0.750000 0.919853
vt 0.750000 1.000000
vt 0.985388 0.203178
vt 0.949553 0.116663
vt 0.718750 0.919853
vt 0.718750 1.000000
vt 0.971731 0.158156
vt 0.687500 0.919853
vt 0.687500 1.000000
vt 0.687500 0.919853
vt 0.687500 1.000000
vt 0.949553 0.116663
vt 0.971731 0.158156
vt 0.656250 0.919853
vt 0.656250 1.000000
vt 0.919706 0.080294
vt 0.718750 0.919853
vt 0.718750 1.000000
vt 0.625000 0.919853
vt 0.625000 1.000000
vt 0.883337 0.050447
vt 0.985388 0.203178
vt 0.593750 0.919853
vt 0.593750 1.000000
vt 0.841844 0.028269
vt 0.750000 0.919853
vt 0.750000 1.000000
vt 0.562500 0.919853
vt 0.562500 1.000000
vt 0.796822 0.014612
vt 0.990000 0.250000
vt 0.531250 0.919853
vt 0.531250 1.000000
vt 0.750000 0.010000
vt 0.781250 0.919853
vt 0.781250 1.000000
vt 0.500000 0.919853
vt 0.500000 1.000000
vt 0.703178 0.014612
vt 0.985388 0.296822
vt 0.468750 0.919853
vt 0.468750 1.000000
vt 0.658156 0.028269
vt 0.812500 0.919853
vt 0.812500 1.000000
vt 0.437500 0.919853
vt 0.437500 1.000000
vt 0.616663 0.050447
vt 0.971731 0.341844
vt 0.406250 0.919853
vt 0.406250 1.000000
vt 0.580294 0.080294
vt 0.843750 0.919853
vt 0.843750 1.000000
vt 0.375000 0.919853
vt 0.375000 1.000000
vt 0.550447 0.116663
vt 0.949553 0.383337
vt 0.343750 0.919853
vt 0.343750 1.000000
vt 0.528269 0.158156
vt 0.875000 0.919853
vt 0.875000 1.000000
vt 0.312500 0.919853
vt 0.312500 1.000000
vt 0.514611 0.203179
vt 0.919706 0.419706
vt 0.281250 0.919853
vt 0.281250 1.000000
vt 0.510000 0.250000
vt 0.906250 0.919853
vt 0.906250 1.000000
vt 0.250000 0.919853
vt 0.250000 1.000000
vt 0.514612 0.296822
vt 0.883337 0.449553
vt 0.218750 0.919853
vt 0.218750 1.000000
vt 0.528269 0.341844
vt 0.937500 0.919853
vt 0.937500 1.000000
vt 0.187500 0.919853
vt 0.187500 1.000000
vt 0.550447 0.383337
vt 0.841844 0.471731
vt 0.156250 0.919853
vt 0.156250 1.000000
vt 0.580295 0.419706
vt 0.968750 0.919853
vt 0.968750 1.000000
vt 0.125000 0.919853
vt 0.125000 1.000000
vt 0.616663 0.449553
vt 0.796822 0.485388
vt 0.093750 0.919853
vt 0.093750 1.000000
vt 0.658156 0.471731
vt 1.000000 0.919853
vt 1.000000 1.000000
vt 0.062500 0.919853
vt 0.062500 1.000000
vt 0.703179 0.485389
vt 0.750000 0.490000
vt 0.031250 0.919853
vt 0.031250 1.000000
vt 0.500000 1.000000
vt 0.500000 0.919853
vt 0.000000 0.919853
vt 0.000000 1.000000
vt 0.031250 0.892817
vt 0.000000 0.892817
vt 0.062500 0.892817
vt 0.093750 0.892817
vt 0.125000 0.892817
vt 0.156250 0.892817
vt 0.187500 0.892817
vt 0.218750 0.892817
vt 0.250000 0.892817
vt 0.281250 0.892817
vt 0.312500 0.892817
vt 0.343750 0.892817
vt 0.375000 0.892817
vt 0.406250 0.892817
vt 0.437500 0.892817
vt 0.468750 0.892817
vt 0.500000 0.892817
vt 0.531250 0.892817
vt 0.562500 0.892817
vt 0.593750 0.892817
vt 0.625000 0.892817
vt 0.656250 0.892817
vt 0.687500 0.892817
vt 0.718750 0.892817
vt 0.750000 0.892817
vt 0.781250 0.892817
vt 0.812500 0.892817
vt 0.843750 0.892817
vt 0.875000 0.892817
vt 0.906250 0.892817
vt 0.937500 0.892817
vt 0.968750 0.892817
vt 1.000000 0.892817
vt 0.703178 0.014612
vt 0.468750 1.000000
vt 0.468750 0.919853
vt 0.658156 0.028269
vt 0.437500 1.000000
vt 0.437500 0.919853
vt 0.616663 0.050447
vt 0.406250 1.000000
vt 0.406250 0.919853
vt 0.580294 0.080294
vt 0.375000 1.000000
vt 0.375000 0.919853
vt 0.550447 0.116663
vt 0.343750 1.000000
vt 0.343750 0.919853
vt 0.528269 0.158156
vt 0.312500 1.000000
vt 0.312500 0.919853
vt 0.514611 0.203179
vt 0.281250 1.000000
vt 0.281250 0.919853
vt 0.510000 0.250000
vt 0.250000 1.000000
vt 0.250000 0.919853
vt 0.514612 0.296822
vt 0.218750 1.000000
vt 0.218750 0.919853
vt 0.528269 0.341844
vt 0.187500 1.000000
vt 0.187500 0.919853
vt 0.550447 0.383337
vt 0.156250 1.000000
vt 0.156250 0.919853
vt 0.580295 0.419706
vt 0.125000 1.000000
vt 0.125000 0.919853
vt 0.616663 0.449553
vt 0.093750 1.000000
vt 0.093750 0.919853
vt 0.658156 0.471731
vt 0.062500 1.000000
vt 0.062500 0.919853
vt 0.703179 0.485389
vt 0.031250 1.000000
vt 0.031250 0.919853
vt 0.000000 1.000000
vt 0.000000 0.919853
vt 0.031250 0.500000
vt 0.000000 0.500000
vt 0.062500 0.500000
vt 0.093750 0.500000
vt 0.125000 0.500000
vt 0.156250 0.500000
vt 0.187500 0.500000
vt 0.218750 0.500000
vt 0.250000 0.500000
vt 0.281250 0.500000
vt 0.312500 0.500000
vt 0.343750 0.500000
vt 0.375000 0.500000
vt 0.406250 0.500000
vt 0.437500 0.500000
vt 0.468750 0.500000
vt 0.500000 0.500000
vt 0.531250 0.500000
vt 0.562500 0.500000
vt 0.593750 0.500000
vt 0.625000 0.500000
vt 0.656250 0.500000
vt 0.687500 0.500000
vt 0.718750 0.500000
vt 0.750000 0.500000
vt 0.781250 0.500000
vt 0.812500 0.500000
vt 0.843750 0.500000
vt 0.875000 0.500000
vt 0.906250 0.500000
vt 0.937500 0.500000
vt 0.968750 0.500000
vt 1.000000 0.500000
vt 1.000000 0.500000
vt 0.968750 0.500000
vt 0.937500 0.500000
vt 0.906250 0.500000
vt 0.875000 0.500000
vt 0.843750 0.500000
vt 0.812500 0.500000
vt 0.781250 0.500000
vt 0.750000 0.500000
vt 0.718750 0.500000
vt 0.687500 0.500000
vt 0.656250 0.500000
vt 0.625000 0.500000
vt 0.593750 0.500000
vt 0.562500 0.500000
vt 0.531250 0.500000
vt 0.500000 0.500000
vt 0.468750 0.500000
vt 0.437500 0.500000
vt 0.406250 0.500000
vt 0.375000 0.500000
vt 0.343750 0.500000
vt 0.312500 0.500000
vt 0.281250 0.500000
vt 0.250000 0.500000
vt 0.218750 0.500000
vt 0.187500 0.500000
vt 0.156250 0.500000
vt 0.125000 0.500000
vt 0.093750 0.500000
vt 0.062500 0.500000
vt 0.031250 0.500000
vt 0.000000 0.500000
vn 0.0000 0.0000 1.0000
vn -0.0000 0.0000 -1.0000
vn 0.0980 0.9952 0.0000
vn -0.6729 0.7206 -0.1671
vn 0.2903 0.9569 0.0000
vn 0.4714 0.8819 0.0000
vn -0.4714 0.8819 0.0000
vn 0.6344 0.7730 0.0000
vn 0.7730 0.6344 -0.0000
vn -0.6344 0.7730 0.0000
vn 0.8819 0.4714 0.0000
vn 0.9569 0.2903 -0.0000
vn -0.7730 0.6344 0.0000
vn 0.9952 0.0980 -0.0000
vn 0.9952 -0.0980 0.0000
vn -0.8819 0.4714 -0.0000
vn 0.9569 -0.2903 0.0000
vn 0.8819 -0.4714 0.0000
vn -0.9569 0.2903 0.0000
vn 0.7730 -0.6344 0.0000
vn 0.6344 -0.7730 0.0000
vn -0.9952 0.0980 -0.0000
vn 0.4714 -0.8819 0.0000
vn 0.6729 -0.7206 0.1671
vn -0.9952 -0.0980 0.0000
vn 0.3442 -0.8091 0.4764
vn -0.3442 -0.8091 0.4764
vn -0.9569 -0.2903 0.0000
vn -0.6729 -0.7206 0.1671
vn -0.4714 -0.8819 0.0000
vn -0.8819 -0.4714 0.0000
vn -0.6344 -0.7730 0.0000
vn -0.7730 -0.6344 0.0000
vn -0.2903 -0.9569 0.0000
vn -0.0980 -0.9952 0.0000
vn -0.2903 0.9569 0.0000
vn -0.3442 0.8091 -0.4764
vn -0.0980 0.9952 0.0000
vn 0.0980 -0.9952 0.0000
vn 0.2903 -0.9569 0.0000
vn 0.3442 0.8091 -0.4764
vn 0.6729 0.7206 -0.1671
vn 0.4951 -0.6033 -0.6252
vn 0.6062 0.4975 -0.6205
vn -0.4977 0.6065 -0.6201
vn -0.6036 -0.4954 -0.6247
vn 0.7790 0.0767 -0.6223
vn -0.4544 0.6041 -0.6547
vn -0.7785 -0.0767 -0.6230
vn 0.6890 -0.3683 -0.6242
vn 0.3700 0.6922 -0.6197
vn -0.6912 0.3695 -0.6211
vn -0.3678 -0.6881 -0.6255
vn 0.3678 -0.6881 -0.6255
vn 0.6912 0.3695 -0.6211
vn -0.3700 0.6922 -0.6197
vn -0.6890 -0.3683 -0.6242
vn -0.0764 -0.7761 -0.6259
vn 0.7785 -0.0767 -0.6230
vn 0.4544 0.6041 -0.6547
vn -0.7790 0.0767 -0.6223
vn 0.6036 -0.4954 -0.6247
vn 0.4977 0.6065 -0.6201
vn -0.6062 0.4975 -0.6205
vn -0.4951 -0.6033 -0.6252
vn 0.2264 -0.7464 -0.6258
vn 0.7495 0.2274 -0.6217
vn -0.7058 0.4512 -0.5461
vn -0.7481 -0.2269 -0.6236
vn 0.7481 -0.2269 -0.6236
vn 0.7058 0.4512 -0.5461
vn -0.7496 0.2274 -0.6217
vn -0.2264 -0.7464 -0.6258
vn 0.0764 -0.7761 -0.6259
usemtl None
s off
f 1/1/1 5/2/1 3/3/1
f 2/4/2 129/5/2 131/6/2
f 67/7/3 68/8/3 6/9/3 4/10/3
f 1/1/1 7/11/1 5/2/1
f 177/12/4 128/13/4 130/14/4 178/15/4
f 68/8/5 69/16/5 8/17/5 6/9/5
f 1/1/1 9/18/1 7/11/1
f 2/4/2 127/19/2 129/5/2
f 69/16/6 70/20/6 10/21/6 8/17/6
f 1/1/1 11/22/1 9/18/1
f 176/23/7 126/24/7 128/13/7 177/12/7
f 70/20/8 71/25/8 12/26/8 10/21/8
f 1/1/1 13/27/1 11/22/1
f 2/4/2 125/28/2 127/19/2
f 71/25/9 72/29/9 14/30/9 12/26/9
f 1/1/1 15/31/1 13/27/1
f 175/32/10 124/33/10 126/24/10 176/23/10
f 72/29/11 73/34/11 16/35/11 14/30/11
f 1/1/1 17/36/1 15/31/1
f 2/4/2 123/37/2 125/28/2
f 73/34/12 74/38/12 18/39/12 16/35/12
f 1/1/1 19/40/1 17/36/1
f 174/41/13 122/42/13 124/33/13 175/32/13
f 74/38/14 75/43/14 20/44/14 18/39/14
f 1/1/1 21/45/1 19/40/1
f 2/4/2 121/46/2 123/37/2
f 75/43/15 76/47/15 22/48/15 20/44/15
f 1/1/1 23/49/1 21/45/1
f 173/50/16 120/51/16 122/42/16 174/41/16
f 76/47/17 77/52/17 24/53/17 22/48/17
f 1/1/1 25/54/1 23/49/1
f 2/4/2 119/55/2 121/46/2
f 77/52/18 78/56/18 26/57/18 24/53/18
f 1/1/1 27/58/1 25/54/1
f 172/59/19 118/60/19 120/51/19 173/50/19
f 78/56/20 79/61/20 28/62/20 26/57/20
f 1/1/1 29/63/1 27/58/1
f 2/4/2 117/64/2 119/55/2
f 79/61/21 80/65/21 30/66/21 28/62/21
f 1/1/1 31/67/1 29/63/1
f 171/68/22 116/69/22 118/60/22 172/59/22
f 80/65/23 81/70/23 32/71/23 30/66/23
f 1/1/1 33/72/1 31/67/1
f 2/4/2 115/73/2 117/64/2
f 81/70/24 82/74/24 34/75/24 32/71/24
f 1/1/1 35/76/1 33/72/1
f 170/77/25 114/78/25 116/69/25 171/68/25
f 82/74/26 83/79/26 36/80/26 34/75/26
f 1/1/1 37/81/1 35/76/1
f 2/4/2 113/82/2 115/73/2
f 83/79/27 84/83/27 38/84/27 36/80/27
f 1/1/1 39/85/1 37/81/1
f 169/86/28 112/87/28 114/78/28 170/77/28
f 84/83/29 85/88/29 40/89/29 38/84/29
f 1/1/1 41/90/1 39/85/1
f 2/4/2 111/91/2 113/82/2
f 85/88/30 86/92/30 42/93/30 40/89/30
f 1/1/1 43/94/1 41/90/1
f 168/95/31 110/96/31 112/87/31 169/86/31
f 86/92/32 87/97/32 44/98/32 42/93/32
f 1/1/1 45/99/1 43/94/1
f 2/4/2 109/100/2 111/91/2
f 87/97/33 88/101/33 46/102/33 44/98/33
f 1/1/1 47/103/1 45/99/1
f 167/104/33 108/105/33 110/96/33 168/95/33
f 88/101/31 89/106/31 48/107/31 46/102/31
f 1/1/1 49/108/1 47/103/1
f 2/4/2 107/109/2 109/100/2
f 89/106/28 90/110/28 50/111/28 48/107/28
f 1/1/1 51/112/1 49/108/1
f 166/113/32 106/114/32 108/105/32 167/104/32
f 90/110/25 91/115/25 52/116/25 50/111/25
f 1/1/1 53/117/1 51/112/1
f 2/4/2 105/118/2 107/109/2
f 91/115/22 92/119/22 54/120/22 52/116/22
f 1/1/1 55/121/1 53/117/1
f 165/122/30 104/123/30 106/114/30 166/113/30
f 92/119/19 93/124/19 56/125/19 54/120/19
f 1/1/1 57/126/1 55/121/1
f 2/4/2 103/127/2 105/118/2
f 93/124/16 94/128/16 58/129/16 56/125/16
f 1/1/1 59/130/1 57/126/1
f 164/131/34 102/132/34 104/123/34 165/122/34
f 94/128/13 95/133/13 60/134/13 58/129/13
f 1/1/1 61/135/1 59/130/1
f 2/4/2 101/136/2 103/127/2
f 95/133/10 96/137/10 62/138/10 60/134/10
f 1/1/1 63/139/1 61/135/1
f 163/140/35 100/141/35 102/132/35 164/131/35
f 96/137/7 97/142/7 64/143/7 62/138/7
f 1/1/1 65/144/1 63/139/1
f 2/4/2 99/145/2 101/136/2
f 97/142/36 98/146/36 66/147/36 64/143/36
f 1/1/1 3/3/1 65/144/1
f 178/15/37 130/14/37 132/148/37 179/149/37
f 98/146/38 67/150/38 4/151/38 66/147/38
f 225/152/38 226/153/38 67/150/38 98/146/38
f 224/154/36 225/152/36 98/146/36 97/142/36
f 223/155/7 224/154/7 97/142/7 96/137/7
f 222/156/10 223/155/10 96/137/10 95/133/10
f 221/157/13 222/156/13 95/133/13 94/128/13
f 220/158/16 221/157/16 94/128/16 93/124/16
f 219/159/19 220/158/19 93/124/19 92/119/19
f 218/160/22 219/159/22 92/119/22 91/115/22
f 217/161/25 218/160/25 91/115/25 90/110/25
f 216/162/28 217/161/28 90/110/28 89/106/28
f 215/163/31 216/162/31 89/106/31 88/101/31
f 214/164/33 215/163/33 88/101/33 87/97/33
f 213/165/32 214/164/32 87/97/32 86/92/32
f 212/166/30 213/165/30 86/92/30 85/88/30
f 211/167/34 212/166/34 85/88/34 84/83/34
f 210/168/35 211/167/35 84/83/35 83/79/35
f 209/169/39 210/168/39 83/79/39 82/74/39
f 208/170/40 209/169/40 82/74/40 81/70/40
f 207/171/23 208/170/23 81/70/23 80/65/23
f 206/172/21 207/171/21 80/65/21 79/61/21
f 205/173/20 206/172/20 79/61/20 78/56/20
f 204/174/18 205/173/18 78/56/18 77/52/18
f 203/175/17 204/174/17 77/52/17 76/47/17
f 202/176/15 203/175/15 76/47/15 75/43/15
f 201/177/14 202/176/14 75/43/14 74/38/14
f 200/178/12 201/177/12 74/38/12 73/34/12
f 199/179/11 200/178/11 73/34/11 72/29/11
f 198/180/9 199/179/9 72/29/9 71/25/9
f 197/181/8 198/180/8 71/25/8 70/20/8
f 196/182/6 197/181/6 70/20/6 69/16/6
f 195/183/5 196/182/5 69/16/5 68/8/5
f 226/184/3 195/183/3 68/8/3 67/7/3
f 2/4/2 131/6/2 133/185/2
f 179/149/41 132/148/41 134/186/41 180/187/41
f 2/4/2 133/185/2 135/188/2
f 180/187/42 134/186/42 136/189/42 181/190/42
f 2/4/2 135/188/2 137/191/2
f 181/190/6 136/189/6 138/192/6 182/193/6
f 2/4/2 137/191/2 139/194/2
f 182/193/8 138/192/8 140/195/8 183/196/8
f 2/4/2 139/194/2 141/197/2
f 183/196/9 140/195/9 142/198/9 184/199/9
f 2/4/2 141/197/2 143/200/2
f 184/199/11 142/198/11 144/201/11 185/202/11
f 2/4/2 143/200/2 145/203/2
f 185/202/12 144/201/12 146/204/12 186/205/12
f 2/4/2 145/203/2 147/206/2
f 186/205/14 146/204/14 148/207/14 187/208/14
f 2/4/2 147/206/2 149/209/2
f 187/208/15 148/207/15 150/210/15 188/211/15
f 2/4/2 149/209/2 151/212/2
f 188/211/17 150/210/17 152/213/17 189/214/17
f 2/4/2 151/212/2 153/215/2
f 189/214/18 152/213/18 154/216/18 190/217/18
f 2/4/2 153/215/2 155/218/2
f 190/217/20 154/216/20 156/219/20 191/220/20
f 2/4/2 155/218/2 157/221/2
f 191/220/21 156/219/21 158/222/21 192/223/21
f 2/4/2 157/221/2 159/224/2
f 192/223/23 158/222/23 160/225/23 193/226/23
f 2/4/2 159/224/2 161/227/2
f 193/226/40 160/225/40 162/228/40 194/229/40
f 2/4/2 161/227/2 99/145/2
f 194/229/39 162/228/39 100/230/39 163/231/39
f 161/232/39 194/229/39 163/231/39 99/233/39
f 159/234/40 193/226/40 194/229/40 161/232/40
f 157/235/23 192/223/23 193/226/23 159/234/23
f 155/236/21 191/220/21 192/223/21 157/235/21
f 153/237/20 190/217/20 191/220/20 155/236/20
f 151/238/18 189/214/18 190/217/18 153/237/18
f 149/239/17 188/211/17 189/214/17 151/238/17
f 147/240/15 187/208/15 188/211/15 149/239/15
f 145/241/14 186/205/14 187/208/14 147/240/14
f 143/242/12 185/202/12 186/205/12 145/241/12
f 141/243/11 184/199/11 185/202/11 143/242/11
f 139/244/9 183/196/9 184/199/9 141/243/9
f 137/245/8 182/193/8 183/196/8 139/244/8
f 135/246/6 181/190/6 182/193/6 137/245/6
f 133/247/5 180/187/5 181/190/5 135/246/5
f 131/248/3 179/149/3 180/187/3 133/247/3
f 129/249/38 178/15/38 179/149/38 131/248/38
f 127/250/36 177/12/36 178/15/36 129/249/36
f 125/251/7 176/23/7 177/12/7 127/250/7
f 123/252/10 175/32/10 176/23/10 125/251/10
f 121/253/13 174/41/13 175/32/13 123/252/13
f 119/254/16 173/50/16 174/41/16 121/253/16
f 117/255/19 172/59/19 173/50/19 119/254/19
f 115/256/22 171/68/22 172/59/22 117/255/22
f 113/257/25 170/77/25 171/68/25 115/256/25
f 111/258/28 169/86/28 170/77/28 113/257/28
f 109/259/31 168/95/31 169/86/31 111/258/31
f 107/260/33 167/104/33 168/95/33 109/259/33
f 105/261/32 166/113/32 167/104/32 107/260/32
f 103/262/30 165/122/30 166/113/30 105/261/30
f 101/263/34 164/131/34 165/122/34 103/262/34
f 99/264/35 163/140/35 164/131/35 101/263/35
f 60/134/43 62/138/43 158/222/43 156/219/43
f 44/98/44 46/102/44 142/198/44 140/195/44
f 28/62/45 30/66/45 126/24/45 124/33/45
f 12/26/46 14/30/46 110/96/46 108/105/46
f 50/111/47 52/116/47 148/207/47 146/204/47
f 34/75/48 36/80/48 132/148/48 130/14/48
f 18/39/49 20/44/49 116/69/49 114/78/49
f 56/125/50 58/129/50 154/216/50 152/213/50
f 40/89/51 42/93/51 138/192/51 136/189/51
f 24/53/52 26/57/52 122/42/52 120/51/52
f 8/17/53 10/21/53 106/114/53 104/123/53
f 62/138/54 64/143/54 160/225/54 158/222/54
f 46/102/55 48/107/55 144/201/55 142/198/55
f 30/66/56 32/71/56 128/13/56 126/24/56
f 14/30/57 16/35/57 112/87/57 110/96/57
f 4/10/58 6/9/58 102/132/58 100/141/58
f 52/116/59 54/120/59 150/210/59 148/207/59
f 36/80/60 38/84/60 134/186/60 132/148/60
f 20/44/61 22/48/61 118/60/61 116/69/61
f 58/129/62 60/134/62 156/219/62 154/216/62
f 42/93/63 44/98/63 140/195/63 138/192/63
f 26/57/64 28/62/64 124/33/64 122/42/64
f 10/21/65 12/26/65 108/105/65 106/114/65
f 64/143/66 66/147/66 162/228/66 160/225/66
f 48/107/67 50/111/67 146/204/67 144/201/67
f 32/71/68 34/75/68 130/14/68 128/13/68
f 16/35/69 18/39/69 114/78/69 112/87/69
f 54/120/70 56/125/70 152/213/70 150/210/70
f 38/84/71 40/89/71 136/189/71 134/186/71
f 22/48/72 24/53/72 120/51/72 118/60/72
f 6/9/73 8/17/73 104/123/73 102/132/73
f 66/147/74 4/151/74 100/230/74 162/228/74
f 3/265/3 5/266/3 195/183/3 226/184/3
f 5/266/5 7/267/5 196/182/5 195/183/5
f 7/267/6 9/268/6 197/181/6 196/182/6
f 9/268/8 11/269/8 198/180/8 197/181/8
f 11/269/9 13/270/9 199/179/9 198/180/9
f 13/270/11 15/271/11 200/178/11 199/179/11
f 15/271/12 17/272/12 201/177/12 200/178/12
f 17/272/14 19/273/14 202/176/14 201/177/14
f 19/273/15 21/274/15 203/175/15 202/176/15
f 21/274/17 23/275/17 204/174/17 203/175/17
f 23/275/18 25/276/18 205/173/18 204/174/18
f 25/276/20 27/277/20 206/172/20 205/173/20
f 27/277/21 29/278/21 207/171/21 206/172/21
f 29/278/23 31/279/23 208/170/23 207/171/23
f 31/279/40 33/280/40 209/169/40 208/170/40
f 33/280/39 35/281/39 210/168/39 209/169/39
f 35/281/35 37/282/35 211/167/35 210/168/35
f 37/282/34 39/283/34 212/166/34 211/167/34
f 39/283/30 41/284/30 213/165/30 212/166/30
f 41/284/32 43/285/32 214/164/32 213/165/32
f 43/285/33 45/286/33 215/163/33 214/164/33
f 45/286/31 47/287/31 216/162/31 215/163/31
f 47/287/28 49/288/28 217/161/28 216/162/28
f 49/288/25 51/289/25 218/160/25 217/161/25
f 51/289/22 53/290/22 219/159/22 218/160/22
f 53/290/19 55/291/19 220/158/19 219/159/19
f 55/291/16 57/292/16 221/157/16 220/158/16
f 57/292/13 59/293/13 222/156/13 221/157/13
f 59/293/10 61/294/10 223/155/10 222/156/10
f 61/294/7 63/295/7 224/154/7 223/155/7
f 63/295/36 65/296/36 225/152/36 224/154/36
f 65/296/38 3/297/38 226/153/38 225/152/38
